# xmcd
#
# Track frame offsets:
#	150
#	15148
#	29540
#	41148
#	55995
#	70187
#	80430
#	99595
#	114802
#	125393
#	136370
#	148178
#	159747
#	170391
#	183541
#
# Disc length: 2623
#
# Revision: 3
# Processed by: cddbd v1.5.1PL0 Copyright (c) Steve Scherf et al.
# Submitted via: Axialis_AX_CDPlayer 2.6
# Normalized: r2:DSETVAR1
#
DISCID=c90a3d0f
DTITLE=Various Artist - Classic Country 1975 - 1979 Disc 1
DYEAR=1900
DGENRE=
TTITLE0=Waylon Jennings - Luckenbach, Texas (Back to the Basics of Love)
TTITLE1=The Bellamy Brothers - If I Said You Had a Beautiful Body Would You Hold \nIt Against Me
TTITLE2=Crystal Gayle - Don't It Make My Brown Eyes Blue
TTITLE3=Glen Campbell - Rhinestone Cowboy
TTITLE4=Merle Haggard - Always Wanting You
TTITLE5=The Statler Brothers - Do You Know You Are My Sunshine
TTITLE6=Marty Robbins - El Paso City
TTITLE7=B. J. Thomas - (Hey Won't You Play) Another Somebody Done Somebody Wrong \nSong
TTITLE8=Barbara Mandrell - Sleeping Single in a Double Bed
TTITLE9=The Kendalls - Heaven's Just a Sin Away
TTITLE10=Freddy Fenders - Before the Next Teardrop Falls
TTITLE11=Waylon Jennings and Willie Nelson - Mammas Don't Let Your Babies Grow \nUp to Be Cowboys
TTITLE12=Willie Nelson - Blue Eyes Crying in the Rain
TTITLE13=Conway Twitty - Happy Birthday Darlin'
TTITLE14=Dolly Parton - Here You Come Again
EXTD=
EXTT0=
EXTT1=
EXTT2=
EXTT3=
EXTT4=
EXTT5=
EXTT6=
EXTT7=
EXTT8=
EXTT9=
EXTT10=
EXTT11=
EXTT12=
EXTT13=
EXTT14=
PLAYORDER=
